<?xml version="1.0" encoding="utf-8"?>
<!-- Generator: Adobe Illustrator 16.0.0, SVG Export Plug-In . SVG Version: 6.00 Build 0)  -->
<!DOCTYPE svg PUBLIC "-//W3C//DTD SVG 1.1//EN">
<svg version="1.1" id="Layer_1" xmlns="http://www.w3.org/2000/svg" xmlns:xlink="http://www.w3.org/1999/xlink" x="0px" y="0px"
	 width="60px" height="220px" viewBox="0 0 60 220" enable-background="new 0 0 60 220" xml:space="preserve">
<rect display="none" opacity="0.61" fill="#AAAAAA" width="60" height="60"/>
<rect y="80" display="none" opacity="0.61" fill="#AAAAAA" width="60" height="60"/>
<rect y="160" display="none" opacity="0.61" fill="#AAAAAA" width="60" height="60"/>
<g>
	<path fill="#FFFFFF" d="M31.98,126.275c-1.479,0-2.926,0-4.4,0c-0.006,0.106-0.015,0.203-0.015,0.299
		c-0.001,2.267-0.001,4.533,0,6.8c0.001,1.546-0.812,2.638-2.146,3.177c-0.72,0.291-1.504,0.285-2.276,0.006
		c-0.967-0.352-1.614-1.019-1.99-1.938c-0.152-0.373-0.193-0.812-0.196-1.221c-0.018-2.249-0.007-4.497-0.007-6.746
		c0-0.115,0-0.232,0-0.391c-0.188,0-0.348,0-0.508,0c-0.598,0-1.196,0.005-1.795-0.002c-0.979-0.012-1.858-0.303-2.574-0.988
		c-0.697-0.668-1.113-1.479-1.115-2.466c-0.011-6.989-0.02-13.979-0.027-20.968c0-0.195,0.017-0.392,0.025-0.595
		c9.9,0,19.77,0,29.654,0c0.01,0.213,0.026,0.41,0.026,0.608c0.001,6.772,0.003,13.545-0.002,20.317c0,0.596,0,1.193-0.238,1.762
		c-0.438,1.044-1.163,1.791-2.253,2.125c-0.415,0.126-0.862,0.179-1.297,0.197c-0.732,0.031-1.466,0.009-2.228,0.009
		c0,0.163,0,0.304,0,0.445c-0.001,2.221,0.005,4.442-0.005,6.664c-0.006,1.268-0.536,2.261-1.631,2.922
		c-0.768,0.463-1.594,0.544-2.471,0.354c-1.543-0.332-2.552-1.819-2.535-3.323c0.023-2.275,0.004-4.552,0.004-6.827
		C31.98,126.435,31.98,126.371,31.98,126.275z"/>
	<path fill="#FFFFFF" d="M44.603,100.06c-9.906,0-19.784,0-29.708,0c0.022-0.364,0.039-0.712,0.066-1.06
		c0.148-1.835,0.693-3.551,1.591-5.151c0.72-1.283,1.625-2.424,2.716-3.416c0.877-0.797,1.836-1.479,2.875-2.052
		c0.397-0.219,0.369-0.148,0.162-0.524c-0.684-1.236-1.359-2.478-2.037-3.718c-0.191-0.351-0.148-0.629,0.105-0.747
		c0.24-0.112,0.486-0.048,0.625,0.195c0.365,0.64,0.721,1.286,1.076,1.933c0.383,0.694,0.763,1.391,1.138,2.09
		c0.075,0.14,0.163,0.165,0.306,0.111c0.662-0.246,1.314-0.524,1.991-0.717c0.609-0.173,1.241-0.287,1.872-0.359
		c0.887-0.101,1.779-0.187,2.67-0.19c1.1-0.004,2.189,0.147,3.266,0.395c0.926,0.213,1.832,0.485,2.703,0.869
		c0.135,0.06,0.231,0.047,0.322-0.122c0.718-1.331,1.451-2.654,2.181-3.979c0.144-0.261,0.423-0.352,0.668-0.218
		c0.205,0.113,0.271,0.438,0.128,0.697c-0.473,0.86-0.951,1.718-1.426,2.576c-0.25,0.45-0.493,0.903-0.746,1.351
		c-0.08,0.143-0.025,0.197,0.098,0.272c0.574,0.348,1.16,0.681,1.704,1.071c1.113,0.797,2.089,1.736,2.935,2.826
		c0.942,1.217,1.66,2.54,2.13,3.997C44.414,97.435,44.656,98.709,44.603,100.06z M24.256,93.471c0.047-0.63-0.521-1.286-1.222-1.268
		c-0.726,0.018-1.284,0.581-1.276,1.324c0.008,0.631,0.6,1.184,1.268,1.182C23.715,94.707,24.256,94.162,24.256,93.471z
		 M36.541,92.207c-0.704,0.001-1.244,0.547-1.255,1.246c-0.01,0.623,0.53,1.271,1.274,1.258c0.688-0.013,1.219-0.562,1.218-1.28
		C37.777,92.747,37.23,92.205,36.541,92.207z"/>
	<path fill="#FFFFFF" d="M7.17,110.776c-0.001-2.357-0.026-4.715,0.01-7.071c0.02-1.236,0.681-2.125,1.744-2.73
		c0.482-0.274,1.015-0.389,1.55-0.379c1.613,0.028,2.948,1.075,3.251,2.715c0.066,0.361,0.061,0.739,0.061,1.109
		c0.004,4.406,0.001,8.812,0.002,13.218c0.001,1.101-0.436,1.994-1.279,2.684c-0.406,0.332-0.881,0.546-1.404,0.63
		c-1.12,0.182-2.119-0.059-2.943-0.869c-0.594-0.583-0.977-1.287-0.984-2.125C7.156,115.563,7.17,113.17,7.17,110.776z"/>
	<path fill="#FFFFFF" d="M45.798,110.762c0-2.375-0.013-4.75,0.007-7.125c0.007-0.726,0.334-1.342,0.801-1.902
		c0.411-0.491,0.931-0.811,1.514-0.998c0.5-0.161,1.033-0.193,1.572-0.075c1.264,0.277,2.139,0.997,2.521,2.235
		c0.135,0.438,0.117,0.924,0.166,1.388c0.009,0.09,0,0.181,0,0.271c-0.001,4.424,0.005,8.847-0.006,13.271
		c-0.004,1.138-0.549,2.016-1.471,2.645c-0.456,0.311-0.984,0.451-1.55,0.518c-1.635,0.192-3.048-1.012-3.388-2.229
		c-0.094-0.335-0.162-0.689-0.164-1.036c-0.014-2.32-0.007-4.641-0.007-6.961C45.795,110.762,45.797,110.762,45.798,110.762z"/>
</g>
<g>
	<path fill="#FFFFFF" d="M50.619,21.076c-3.264-4.72-9.341-6.784-14.893-4.597c-3.874,1.526-7.49,1.782-11.239,0
		c-0.21-0.101-0.446-0.148-0.669-0.221c-4.093-1.337-7.832-0.558-11.25,1.943c-4.53,3.315-6.367,7.979-6.34,13.407
		c0.041,8.244,3.089,15.398,8.435,21.57c2.953,3.409,6.093,4.542,10.708,2.311c3.328-1.61,6.743-1.446,10.115,0.138
		c3.742,1.759,6.364,1.281,9.296-1.646c2.611-2.606,4.567-5.686,6.246-8.948c0.439-0.854,0.813-1.742,1.219-2.617
		C43.115,38.575,41.78,26.277,50.619,21.076z"/>
	<path fill="#FFFFFF" d="M39.229,3.171c-6.075,0.226-12.065,7.357-10.702,12.742C34.136,16.737,40.908,8.675,39.229,3.171z"/>
</g>
<g>
	<path fill="#FFFFFF" d="M56.595,163.314c0,8.452,0,16.904,0,25.374c-0.056,0-0.103-0.001-0.15,0
		c-1.418,0.009-26.674,0.207-27.721,0.215c-0.343,0.002-0.686,0-1.04,0c0-7.113,0-14.25,0-21.382
		c0.43-0.067,28.38-4.143,28.668-4.181c0.02-0.003,0.036-0.018,0.055-0.026C56.469,163.314,56.531,163.314,56.595,163.314z"/>
	<path fill="#FFFFFF" d="M3.24,170.867c0.24-0.029,21.366-2.9,21.598-2.93c0.069-0.009,0.139-0.02,0.219-0.031
		c0,7.018,0,14.024,0,21.041c-0.023,0.003-0.048,0.009-0.073,0.01c-0.966,0.009-21.167,0.125-21.743,0.135
		C3.24,183.017,3.24,176.942,3.24,170.867z"/>
	<path fill="#FFFFFF" d="M3.24,191.215c0.345,0,20.493,0.125,21.701,0.135c0.026,0,0.053,0,0.102,0c0,7.025,0,14.044,0,21.078
		c-0.185-0.023-21.466-2.953-21.736-2.988c-0.021-0.003-0.044-0.001-0.066-0.001C3.24,203.364,3.24,197.289,3.24,191.215z"/>
	<path fill="#FFFFFF" d="M27.619,191.508c9.664,0.018,19.309,0.035,28.964,0.053c0,8.422,0,16.836,0,25.269
		c-0.099-0.009-28.726-4.053-28.825-4.055c-0.08-0.001-0.102-0.042-0.107-0.104s-0.022-18.591-0.031-20.985
		C27.619,191.633,27.619,191.58,27.619,191.508z"/>
</g>
</svg>
