<?xml version="1.0" encoding="utf-8"?>
<!-- Generator: Adobe Illustrator 16.0.0, SVG Export Plug-In . SVG Version: 6.00 Build 0)  -->
<!DOCTYPE svg PUBLIC "-//W3C//DTD SVG 1.1//EN">
<svg version="1.1" id="Layer_1" xmlns="http://www.w3.org/2000/svg" xmlns:xlink="http://www.w3.org/1999/xlink" x="0px" y="0px"
	 width="150.522px" height="150.521px" viewBox="0 0 150.522 150.521" enable-background="new 0 0 150.522 150.521"
	 xml:space="preserve">
<linearGradient id="SVGID_1_" gradientUnits="userSpaceOnUse" x1="75.2612" y1="150.521" x2="75.2612" y2="4.882812e-04">
	<stop  offset="0" style="stop-color:#E5332A"/>
	<stop  offset="1" style="stop-color:#F29100"/>
</linearGradient>
<path fill="url(#SVGID_1_)" d="M75.261,0C33.762,0,0,33.762,0,75.261c0,41.499,33.762,75.26,75.261,75.26
	s75.261-33.762,75.261-75.26C150.522,33.762,116.759,0,75.261,0z"/>
<path fill="#FFFFFF" d="M97.079,91.534c1.351,0,2.45,1.1,2.45,2.45c0,1.352-1.1,2.45-2.45,2.45s-2.45-1.099-2.45-2.45
	C94.628,92.633,95.728,91.534,97.079,91.534z M77.237,102.755c0,1.074-0.875,1.949-1.95,1.949h-19.65
	c-1.075,0-1.95-0.875-1.95-1.949c0-1.076,0.875-1.951,1.95-1.951h19.65C76.362,100.804,77.237,101.679,77.237,102.755z
	 M111.814,53.005v44.512c0,3.97-3.23,7.199-7.2,7.199H89.544c-1.944,0-3.838-0.814-5.197-2.236l-1.618-1.694l21.884,0.03
	c1.819,0,3.3-1.48,3.3-3.299V53.005c0-1.819-1.48-3.3-3.3-3.3H89.544c-1.819,0-3.3,1.48-3.3,3.3v2.974h-3.9v-2.974
	c0-3.97,3.23-7.2,7.2-7.2h15.069C108.583,45.805,111.814,49.035,111.814,53.005z M101.621,57.269h-9.083
	c-1.075,0-1.95-0.875-1.95-1.95s0.875-1.95,1.95-1.95h9.083c1.075,0,1.95,0.875,1.95,1.95S102.696,57.269,101.621,57.269z
	 M92.213,89.972V66.777c0-3.97-3.229-7.2-7.2-7.2H45.908c-3.97,0-7.2,3.23-7.2,7.2v23.195c0,3.971,3.23,7.201,7.2,7.201h39.105
	C88.984,97.173,92.213,93.943,92.213,89.972z M42.608,66.777c0-1.819,1.48-3.3,3.3-3.3h39.105c1.819,0,3.3,1.48,3.3,3.3v23.195
	c0,1.82-1.48,3.301-3.3,3.301H45.908c-1.819,0-3.3-1.48-3.3-3.301V66.777z"/>
</svg>
