<?xml version="1.0" encoding="utf-8"?>
<!-- Generator: Adobe Illustrator 16.0.0, SVG Export Plug-In . SVG Version: 6.00 Build 0)  -->
<!DOCTYPE svg PUBLIC "-//W3C//DTD SVG 1.1//EN" "http://www.w3.org/Graphics/SVG/1.1/DTD/svg11.dtd">
<svg version="1.1" id="Layer_1" xmlns="http://www.w3.org/2000/svg" xmlns:xlink="http://www.w3.org/1999/xlink" x="0px" y="0px"
	 width="150.521px" height="150.521px" viewBox="0 0 150.521 150.521" enable-background="new 0 0 150.521 150.521"
	 xml:space="preserve">
<linearGradient id="SVGID_1_" gradientUnits="userSpaceOnUse" x1="75.2603" y1="150.521" x2="75.2602" y2="4.882812e-04">
	<stop  offset="0" style="stop-color:#0056F9"/>
	<stop  offset="1" style="stop-color:#00CBFF"/>
</linearGradient>
<path fill="url(#SVGID_1_)" d="M75.26,0C33.762,0,0,33.762,0,75.261c0,41.499,33.762,75.26,75.26,75.26s75.261-33.762,75.261-75.26
	C150.521,33.762,116.759,0,75.26,0z"/>
<path fill="#FFFFFF" d="M102.499,46.923V91.25v2.974c0,0.744-0.113,1.463-0.324,2.139c-0.913,2.929-3.65,5.062-6.875,5.062h-1.708
	v-0.707v-3.193h1.708c1.819,0,3.299-1.48,3.299-3.3V91.25V46.923c0-1.819-1.48-3.3-3.299-3.3H84.252l0.029,0.031l-17.559-0.031
	c-1.708,0-3.101,1.31-3.267,2.975h-3.908c0.028-0.627,0.12-1.238,0.299-1.813c0.913-2.929,3.65-5.062,6.876-5.062h10.744h17.833
	C99.268,39.723,102.499,42.953,102.499,46.923z M83.799,49.098H65.966H55.222c-3.226,0-5.963,2.132-6.876,5.062
	c-0.21,0.676-0.324,1.394-0.324,2.139v2.974v44.326c0,3.97,3.23,7.2,7.2,7.2h13.507h15.07c3.226,0,5.962-2.133,6.875-5.062
	c0.211-0.676,0.324-1.395,0.324-2.139v-2.974V56.298C90.999,52.328,87.768,49.098,83.799,49.098z M87.098,100.625v2.974
	c0,1.819-1.48,3.3-3.299,3.3H55.222c-1.819,0-3.3-1.48-3.3-3.3V59.272v-2.974c0-1.819,1.48-3.3,3.3-3.3l17.559,0.031l-0.029-0.031
	h11.047c1.819,0,3.299,1.48,3.299,3.3V100.625z M80.76,97.803c0,1.079-0.875,1.954-1.955,1.954h-18.59
	c-1.08,0-1.955-0.875-1.955-1.954s0.875-1.955,1.955-1.955h18.59C79.885,95.848,80.76,96.724,80.76,97.803z M78.806,59.848h-18.59
	c-1.08,0-1.955,0.875-1.955,1.955v18.59c0,0.021,0.005,0.038,0.006,0.058c0,0.02-0.006,0.037-0.006,0.057
	c0,1.08,0.875,1.955,1.955,1.955h18.59c1.08,0,1.955-0.875,1.955-1.955c0-0.02-0.005-0.037-0.006-0.057
	c0-0.02,0.006-0.037,0.006-0.058v-18.59C80.76,60.724,79.885,59.848,78.806,59.848z M76.851,78.553H62.17V63.758h14.681V78.553z"/>
</svg>
