
<svg xmlns="http://www.w3.org/2000/svg" version="1.1" xmlns:xlink="http://www.w3.org/1999/xlink" preserveAspectRatio="none" x="0px" y="0px" width="48px" height="54px" viewBox="0 0 48 54">
<defs>
<g id="Tween_5_0_Layer0_0_FILL">
<path fill="#FFFFFF" stroke="none" d="
M -33 -14.7
Q -39.35 -10.1 -39.35 -1.3 -39.3 10.6 -30.9 20.25 -28.6 22.95 -26.15 23.55 -23.55 24.2 -20.2 22.6 -15.45 20.25 -10.1 22.7 -7.3 24.05 -5.15 23.65 -3 23.25 -0.8 21.05 2.55 17.7 5.45 12.15
L 6.65 9.5
Q 6.6171875 9.4861328125 6.55 9.45 8.65 5.444921875 8.65 0 8.65 -6.1 6.1 -10.4 5.3998046875 -11.5904296875 4.6 -12.45 2.2408203125 -15.5125 -1.55 -16.7 -5.75 -18.05 -9.85 -16.45 -15.95 -14 -21.1 -16.45
L -21.75 -16.65
Q -27.7 -18.6 -33 -14.7
M -6.35 -29.75
Q -10.9 -29.55 -14.45 -25.3 -18.05 -21.05 -17.05 -17 -12.85 -16.35 -8.95 -21 -5.05 -25.6 -6.35 -29.75 Z"/>
</g>
</defs>

<g transform="matrix( 1, 0, 0, 1, 39.35,30) ">
<g transform="matrix( 1, 0, 0, 1, 0,0) ">
<use xlink:href="#Tween_5_0_Layer0_0_FILL"/>
</g>
</g>
</svg>
