<?xml version="1.0" encoding="utf-8"?>
<!-- Generator: Adobe Illustrator 16.0.0, SVG Export Plug-In . SVG Version: 6.00 Build 0)  -->
<!DOCTYPE svg PUBLIC "-//W3C//DTD SVG 1.1//EN" "http://www.w3.org/Graphics/SVG/1.1/DTD/svg11.dtd">
<svg version="1.1" id="Layer_1" xmlns="http://www.w3.org/2000/svg" xmlns:xlink="http://www.w3.org/1999/xlink" x="0px" y="0px"
	 width="150.521px" height="150.521px" viewBox="0 0 150.521 150.521" enable-background="new 0 0 150.521 150.521"
	 xml:space="preserve">
<linearGradient id="SVGID_1_" gradientUnits="userSpaceOnUse" x1="75.2607" y1="150.521" x2="75.2607" y2="4.882812e-04">
	<stop  offset="0" style="stop-color:#A2195B"/>
	<stop  offset="1" style="stop-color:#E500D0"/>
</linearGradient>
<path fill="url(#SVGID_1_)" d="M75.261,0C33.762,0,0,33.762,0,75.261c0,41.499,33.762,75.26,75.261,75.26
	s75.261-33.762,75.261-75.26C150.521,33.762,116.76,0,75.261,0z"/>
<path fill="#FFFFFF" d="M59.491,69.126h31.538c1.075,0,1.95-0.875,1.95-1.95s-0.875-1.95-1.95-1.95H59.491
	c-1.075,0-1.95,0.875-1.95,1.95S58.416,69.126,59.491,69.126z M59.491,77.595h31.538c1.075,0,1.95-0.875,1.95-1.951
	c0-1.075-0.875-1.95-1.95-1.95H59.491c-1.075,0-1.95,0.875-1.95,1.95C57.541,76.72,58.416,77.595,59.491,77.595z M59.491,86.064
	h17.424c1.075,0,1.95-0.875,1.95-1.951c0-1.074-0.875-1.949-1.95-1.949H59.491c-1.075,0-1.95,0.875-1.95,1.949
	C57.541,85.189,58.416,86.064,59.491,86.064z M96.726,53.937h-42.93c-3.97,0-7.2,3.23-7.2,7.2v29.912c0,3.971,3.23,7.201,7.2,7.201
	h4.65v12.998c0,0.81,0.509,1.543,1.268,1.827c0.221,0.082,0.45,0.124,0.683,0.124c0.563,0,1.1-0.244,1.474-0.673l15.774-18.177
	h-5.105l-10.009,11.46l-0.184,0.212V94.349h-8.551c-1.819,0-3.3-1.48-3.3-3.301V61.137c0-1.819,1.48-3.3,3.3-3.3h42.93
	c1.819,0,3.3,1.48,3.3,3.3v29.912c0,1.82-1.48,3.301-3.3,3.301H81.963l-3.377,3.9h18.14c3.97,0,7.2-3.23,7.2-7.201V61.137
	C103.926,57.167,100.695,53.937,96.726,53.937z"/>
</svg>
